<?xml version="1.0" encoding="UTF-8" standalone="no"?>
<!-- Created with Inkscape (http://www.inkscape.org/) -->

<svg
   xmlns:dc="http://purl.org/dc/elements/1.1/"
   xmlns:cc="http://creativecommons.org/ns#"
   xmlns:rdf="http://www.w3.org/1999/02/22-rdf-syntax-ns#"
   xmlns:svg="http://www.w3.org/2000/svg"
   xmlns="http://www.w3.org/2000/svg"
   xmlns:sodipodi="http://sodipodi.sourceforge.net/DTD/sodipodi-0.dtd"
   xmlns:inkscape="http://www.inkscape.org/namespaces/inkscape"
   id="svg2"
   version="1.1"
   inkscape:version="0.48.4 r9939"
   width="523"
   height="227"
   sodipodi:docname="logo.svg">
  <metadata
     id="metadata8">
    <rdf:RDF>
      <cc:Work
         rdf:about="">
        <dc:format>image/svg+xml</dc:format>
        <dc:type
           rdf:resource="http://purl.org/dc/dcmitype/StillImage" />
        <dc:title />
      </cc:Work>
    </rdf:RDF>
  </metadata>
  <defs
     id="defs6" />
  <sodipodi:namedview
     pagecolor="#ffffff"
     bordercolor="#666666"
     borderopacity="1"
     objecttolerance="10"
     gridtolerance="10"
     guidetolerance="10"
     inkscape:pageopacity="0"
     inkscape:pageshadow="2"
     inkscape:window-width="1366"
     inkscape:window-height="713"
     id="namedview4"
     showgrid="false"
     inkscape:zoom="1.1070969"
     inkscape:cx="358.05107"
     inkscape:cy="-2.982172"
     inkscape:window-x="0"
     inkscape:window-y="27"
     inkscape:window-maximized="1"
     inkscape:current-layer="svg2" />
  <rect
     style="fill:#ffd203;fill-opacity:1;stroke:none"
     id="rect2983"
     width="662.09198"
     height="231.2354"
     x="4.5163159"
     y="-10.558249" />
  <path
     inkscape:connector-curvature="0"
     id="path3041"
     d="m 42.314,193.31226 c -1.65,-0.85815 -4.0705,-2.54288 -5.37888,-3.74384 -4.77267,-4.38083 -5.12112,-6.77259 -5.12112,-35.15145 l 0,-26.53212 32.90213,0 32.90213,0 -1.47538,4.75 c -2.19548,7.06834 -1.30779,17.7289 2.04728,24.58641 10.76146,21.99563 39.8346,26.90926 56.19684,9.49778 5.29545,-5.63503 6.9057,-8.3397 8.83704,-14.84321 1.98641,-6.68898 2.01666,-12.26653 0.10078,-18.58205 -0.81904,-2.69991 -1.49404,-5.02143 -1.5,-5.15893 -0.006,-0.1375 8.33423,-0.25 18.53374,-0.25 l 18.54455,0 -0.29455,27.82995 -0.29456,27.82995 -2.80793,3.67928 c -1.54436,2.02361 -4.56394,4.57513 -6.71016,5.67005 -3.78622,1.93158 -5.9771,1.99059 -73.69207,1.98461 -61.27707,-0.005 -70.15577,-0.19648 -72.78984,-1.56643 z m 81.49353,-28.3035 C 112.77639,161.39689 106.814,153.45901 106.814,142.38485 c 0,-9.438 4.21804,-16.44731 12.5,-20.7718 5.56682,-2.90675 15.47704,-2.87745 21.15327,0.0626 16.38869,8.48854 16.46125,32.98822 0.1224,41.32369 -4.45336,2.27193 -12.89385,3.28258 -16.78214,2.00946 z M 31.814,113.44995 c 0,-13.16434 2.02757,-17.46614 10.21016,-21.66242 3.54204,-1.81646 6.86309,-1.90268 73.28984,-1.90268 67.49869,0 69.69638,0.0595 73.48191,1.99077 2.14622,1.09492 5.1658,3.64574 6.71016,5.66848 2.61085,3.41959 2.83169,4.43795 3.14641,14.50923 l 0.33847,10.83152 -19.70482,0 -19.70482,0 -5.84907,-5.41521 c -8.15509,-7.55017 -14.69348,-9.91088 -25.91824,-9.35787 -10.15361,0.50023 -16.10404,3.14104 -22.95821,10.18889 l -4.45821,4.58419 -34.29179,0 -34.29179,0 z m 180.49866,-7.8151 C 211.2457,98.9382 207.45176,91.57192 202.73568,87.04028 198.19484,82.67704 189.844,78.88485 184.77649,78.88485 l -2.96249,0 0,-8 0,-8 2.7899,0 c 4.29169,0 13.68786,2.70167 19.31711,5.55423 13.37887,6.77958 23.89299,23.07679 23.89299,37.03486 l 0,4.41091 -7.4121,0 -7.4121,0 z m 29.50134,0.93366 c 0,-13.22112 -6.91832,-28.8313 -17.39482,-39.24888 C 213.7668,56.72716 204.26036,51.98021 189.21996,49.74323 l -7.40596,-1.1015 0,-7.37844 0,-7.37844 5.25,0.0174 c 8.63914,0.0286 18.70875,2.6697 28.25,7.40962 24.55718,12.19954 39.45444,33.91583 42.06725,61.32302 l 0.69117,7.25 -8.12921,0 -8.12921,0 0,-3.31634 z m 29.57077,-2.43366 C 270.21407,92.38999 266.86984,79.73426 262.51755,70.57826 249.06445,42.27669 220.75079,22.60052 190.064,20.22771 l -8.25,-0.63792 0,-7.85247 0,-7.85247 3.25,0.006 c 6.40642,0.0116 22.8916,2.99217 30.29487,5.47736 36.03411,12.09626 62.74657,42.82987 69.87153,80.38963 0.87098,4.59142 1.5836,10.99834 1.5836,14.23758 l 0,5.88953 -7.42804,0 -7.42805,0 -0.57314,-5.75 z M 52.814,87.96664 c 0,-3.40835 1.31832,-4.08179 7.99041,-4.08179 6.43409,0 6.80058,0.1263 7.25434,2.5 0.47699,2.49519 0.46277,2.5 -7.38342,2.5 -4.32373,0 -7.86133,-0.4132 -7.86133,-0.91821 z m 35.19578,-1.33179 c 0.78418,-1.2375 2.44764,-3.9375 3.69657,-6 l 2.27077,-3.75 20.43086,0 20.43086,0 3.48758,5.45196 c 1.91817,2.99858 3.48758,5.69858 3.48758,6 0,0.30142 -12.42675,0.54804 -27.61501,0.54804 l -27.61501,0 z m 33.80422,-3.75 0,-3 -7,0 -7,0 0,3 0,3 7,0 7,0 z m 37,5.53393 c 0,-0.25634 0.75835,-2.05634 1.68521,-4 l 1.68521,-3.53393 7.78911,0 c 7.61402,0 7.82341,0.0663 9.31479,2.95034 0.83912,1.62269 1.52568,3.42269 1.52568,4 0,0.66926 -3.98639,1.04966 -11,1.04966 -6.05,0 -11,-0.20973 -11,-0.46607 z"
     style="fill:#ffffff;fill-opacity:1"
     sodipodi:nodetypes="ssscccssssscscccsssscssssccsssssscccssscccsssscccssscccsssscccsssccccscssccccssscccccssssssscccssscscccccccccsscsssss" />
  <text
     xml:space="preserve"
     style="font-size:100px;font-style:normal;font-variant:normal;font-weight:normal;font-stretch:normal;line-height:125%;letter-spacing:0px;word-spacing:0px;fill:#000000;fill-opacity:1;stroke:none;font-family:Ubuntu;-inkscape-font-specification:Ubuntu"
     x="314.33563"
     y="170.99768"
     id="text3753"
     sodipodi:linespacing="125%"><tspan
       sodipodi:role="line"
       id="tspan3755"
       x="314.33563"
       y="170.99768"
       style="font-size:100px;font-style:normal;font-variant:normal;font-weight:normal;font-stretch:normal;fill:#ffffff;fill-opacity:1;font-family:Kuro;-inkscape-font-specification:Kuro">lumera</tspan></text>
</svg>
